:FULLY-SPECIFIED
:DEGREES
546
root 4.03402 16.5342 -2.71824 125.157 -93.7488 -122.104
lowerback 3.24331 -0.00183065 -4.65207
upperback 1.56014 -0.162757 -0.405465
thorax -0.203154 -0.112826 2.19696
lowerneck -18.1119 -0.883711 -0.617745
upperneck 18.9763 -1.79842 2.88717
head 8.97452 -0.606043 0.85015
rclavicle 9.54166e-015 8.69683e-015
rhumerus -30.1906 -1.81949 -83.0775
rradius 25.0635
rwrist 25.2158
rhand -26.2953 2.24993
rfingers 7.12502
rthumb 0.260531 -27.7296
lclavicle 9.54166e-015 8.69683e-015
lhumerus -24.7234 9.54257 84.9029
lradius 16.0844
lwrist -23.1004
lhand -26.2288 2.33372
lfingers 7.12502
lthumb 0.324749 32.3132
rfemur -26.0783 -6.41523 20.0007
rtibia 62.6271
rfoot -12.4912 -10.825
rtoes -14.7869
lfemur -10.3756 -11.384 -28.7935
ltibia 20.8817
lfoot -12.1361 4.43518
ltoes -3.31964
547
root 4.05229 16.5168 -2.71177 125.46 -93.7628 -122.421
lowerback 3.31915 -0.0354728 -4.73294
upperback 1.57807 -0.21351 -0.34661
thorax -0.222719 -0.138695 2.30473
lowerneck -18.1146 -0.865889 -0.639244
upperneck 19.0364 -1.7748 2.90375
head 8.99555 -0.594688 0.862569
rclavicle -7.95139e-016 1.70209e-014
rhumerus -30.112 -1.926 -82.9555
rradius 24.9279
rwrist 25.4924
rhand -26.1139 2.1979
rfingers 7.12502
rthumb 0.435708 -27.7814
lclavicle -7.95139e-016 1.70209e-014
lhumerus -24.4511 8.96005 85.1527
lradius 16.4234
lwrist -22.4255
lhand -26.243 2.41908
lfingers 7.12502
lthumb 0.31101 32.3986
rfemur -26.7134 -5.84517 20.0578
rtibia 61.1362
rfoot -13.3096 -10.6768
rtoes -14.9793
lfemur -10.1806 -11.2657 -28.897
ltibia 21.2949
lfoot -12.6682 4.37343
ltoes -3.56916
548
root 4.06932 16.5089 -2.70592 126.03 -93.7524 -122.96
lowerback 3.34627 -0.0636413 -4.77779
upperback 1.5939 -0.253075 -0.293149
thorax -0.218054 -0.159208 2.3863
lowerneck -18.1334 -0.844126 -0.609383
upperneck 19.0803 -1.75395 2.89725
head 9.01337 -0.583212 0.858193
rclavicle 5.96354e-015 1.14798e-014
rhumerus -30.0437 -2.04792 -82.8691
rradius 24.8405
rwrist 25.5734
rhand -26.0056 2.2511
rfingers 7.12502
rthumb 0.5403 -27.728
lclavicle 5.96354e-015 1.14798e-014
lhumerus -24.1749 8.35783 85.3881
lradius 16.7868
lwrist -21.7516
lhand -26.3509 2.3681
lfingers 7.12502
lthumb 0.206851 32.3477
rfemur -27.3961 -5.29124 20.1666
rtibia 59.4679
rfoot -13.891 -10.6769
rtoes -14.7717
lfemur -10.0303 -11.2123 -28.9433
ltibia 21.6769
lfoot -13.1542 4.33477
ltoes -3.68349
549
root 4.0868 16.4948 -2.70023 127.524 -93.7481 -124.397
lowerback 3.38478 -0.10443 -4.75614
upperback 1.58804 -0.308465 -0.250078
thorax -0.241264 -0.186124 2.42059
lowerneck -18.1545 -0.837683 -0.57151
upperneck 19.127 -1.76009 2.90485
head 9.03324 -0.582248 0.853805
rclavicle 7.35503e-015 5.14355e-015
rhumerus -30.0094 -2.1027 -82.8158
rradius 24.769
rwrist 25.6434
rhand -25.7758 2.25807
rfingers 7.12502
rthumb 0.76232 -27.7203
lclavicle 7.35503e-015 5.14355e-015
lhumerus -23.9998 7.38095 85.6887
lradius 17.2789
lwrist -20.8052
lhand -26.4117 2.28432
lfingers 7.12502
lthumb 0.148128 32.264
rfemur -27.9412 -4.77374 20.2808
rtibia 57.5436
rfoot -14.7059 -10.868
rtoes -16.0671
lfemur -9.87518 -11.2247 -28.9603
ltibia 21.9958
lfoot -13.6173 4.38498
ltoes -3.89441
550
root 4.10222 16.4827 -2.69432 129.388 -93.7734 -126.215
lowerback 3.42532 -0.165076 -4.71358
upperback 1.59648 -0.389765 -0.224881
thorax -0.249168 -0.22657 2.42568
lowerneck -18.1833 -0.826588 -0.532633
upperneck 19.1247 -1.766 2.94877
head 9.03805 -0.577088 0.861578
rclavicle 2.98177e-015 5.46658e-015
rhumerus -29.9693 -2.21422 -82.7787
rradius 24.6918
rwrist 25.9033
rhand -25.6079 2.22143
rfingers 7.12502
rthumb 0.924423 -27.7563
lclavicle 2.98177e-015 5.46658e-015
lhumerus -23.7927 6.8193 85.8386
lradius 17.6891
lwrist -20.3738
lhand -26.5002 2.12201
lfingers 7.12502
lthumb 0.0626538 32.1017
rfemur -28.3443 -4.31462 20.3639
rtibia 55.4145
rfoot -15.4201 -11.0975
rtoes -16.6561
lfemur -9.63598 -11.2909 -28.9924
ltibia 22.1945
lfoot -14.0165 4.43198
ltoes -3.98826
551
root 4.1187 16.4763 -2.69105 130.925 -93.8053 -127.669
lowerback 3.45529 -0.209242 -4.7031
upperback 1.59902 -0.449638 -0.202735
thorax -0.258616 -0.256302 2.44487
lowerneck -18.2103 -0.823895 -0.512769
upperneck 19.0803 -1.7791 3.00685
head 9.02846 -0.575185 0.876308
rclavicle 1.25234e-014 9.29318e-015
rhumerus -29.9388 -2.26622 -82.8082
rradius 24.6874
rwrist 25.5788
rhand -25.6192 2.24734
rfingers 7.12502
rthumb 0.913521 -27.7304
lclavicle 1.25234e-014 9.29318e-015
lhumerus -23.6233 5.6808 86.1621
lradius 18.2776
lwrist -19.3119
lhand -26.4984 2.3137
lfingers 7.12502
lthumb 0.0643794 32.2934
rfemur -28.7033 -3.73138 20.3925
rtibia 53.0335
rfoot -15.9466 -11.4859
rtoes -16.7471
lfemur -9.38706 -11.3104 -29.0241
ltibia 22.2679
lfoot -14.3747 4.64408
ltoes -4.73959
552
root 4.13232 16.4713 -2.68667 132.319 -93.9078 -128.961
lowerback 3.45444 -0.278724 -4.73966
upperback 1.59688 -0.543067 -0.186313
thorax -0.252549 -0.303248 2.48551
lowerneck -18.2475 -0.805472 -0.497265
upperneck 19.0534 -1.76478 3.04276
head 9.02593 -0.562993 0.887793
rclavicle 1.39149e-015 -1.98785e-016
rhumerus -29.9416 -2.38724 -82.7567
rradius 24.7006
rwrist 25.8532
rhand -25.4881 2.19911
rfingers 7.12502
rthumb 1.0402 -27.7781
lclavicle 1.39149e-015 -1.98785e-016
lhumerus -23.4698 4.97807 86.382
lradius 18.8438
lwrist -18.4947
lhand -26.5442 2.24322
lfingers 7.12502
lthumb 0.0201848 32.223
rfemur -28.9692 -3.14215 20.3144
rtibia 50.4427
rfoot -16.0499 -12.087
rtoes -17.5491
lfemur -9.0711 -11.3716 -29.1174
ltibia 22.1916
lfoot -14.7333 4.86792
ltoes -5.44577
